<svg xmlns="http://www.w3.org/2000/svg" width="44.238" height="44.238" viewBox="0 0 44.238 44.238"><path fill="#fff" d="M15.533 29.455c-.192 0-.384-.073-.53-.22-.293-.293-.293-.77 0-1.062l13.17-13.17c.294-.294.77-.294 1.062 0s.293.767 0 1.06L16.063 29.235c-.146.147-.338.22-.53.22z"/><path fill="#fff" d="M28.704 29.455c-.192 0-.384-.073-.53-.22l-13.172-13.17c-.293-.294-.293-.77 0-1.062s.768-.293 1.06 0l13.172 13.17c.293.294.293.77 0 1.063-.146.146-.338.22-.53.22z"/><path fill="#fff" d="M22.12 44.237C9.92 44.237 0 34.315 0 22.12 0 9.924 9.922 0 22.12 0s22.118 9.923 22.118 22.12-9.924 22.117-22.12 22.117zm0-42.736C10.75 1.5 1.5 10.75 1.5 22.12s9.25 20.62 20.62 20.62 20.618-9.25 20.618-20.62S33.488 1.5 22.118 1.5z"/></svg>