<svg xmlns="http://www.w3.org/2000/svg" viewBox="0 0 490.667 490.667"><path fill="#fff" d="M458.667 0H32C14.357 0 0 14.357 0 32v426.667c0 17.643 14.357 32 32 32h426.667c17.643 0 32-14.357 32-32V32c0-17.643-14.358-32-32-32zM231.552 274.22L100.416 405.332h102.25c5.89 0 10.668 4.78 10.668 10.667 0 5.888-4.78 10.667-10.667 10.667h-128c-1.387 0-2.773-.277-4.075-.81-2.603-1.09-4.693-3.158-5.78-5.782-.535-1.302-.812-2.688-.812-4.075V288c0-5.888 4.78-10.667 10.667-10.667s10.666 4.78 10.666 10.667v102.25l131.115-131.114c4.16-4.16 10.923-4.16 15.083 0s4.182 10.9.022 15.083zm195.115-71.553c0 5.888-4.78 10.667-10.667 10.667-5.888 0-10.667-4.78-10.667-10.667v-102.25L274.22 231.53c-2.092 2.092-4.822 3.137-7.553 3.137-2.73 0-5.46-1.045-7.552-3.115-4.16-4.16-4.16-10.923 0-15.083L390.25 85.332H288c-5.888 0-10.667-4.78-10.667-10.667S282.113 64 288 64h128c1.387 0 2.773.277 4.075.81 2.603 1.09 4.693 3.158 5.78 5.782.534 1.3.812 2.688.812 4.075v128z"/></svg>